<?xml version="1.0" encoding="UTF-8" standalone="no"?>
<?xml-stylesheet href="handson.css" type="text/css"?>
<svg xmlns="http://www.w3.org/2000/svg" width="1000" height="750" viewBox="0 0 1000 750" xmlns:xlink="http://www.w3.org/1999/xlink">
<rect class="background" x="0" y="0" width="1000" height="750"/>


<!-- draw background grid -->
<path class="thin" style="stroke-opacity:0.2" d="M0,0 h1000v10h-1000v10h1000v10h-1000v10 h1000v10h-1000v10h1000v10h-1000v10 h1000v10h-1000v10h1000v10h-1000v10 h1000v10h-1000v10h1000v10h-1000v10 h1000v10h-1000v10h1000v10h-1000v10 h1000v10h-1000v10h1000v10h-1000v10 h1000v10h-1000v10h1000v10h-1000v10 h1000v10h-1000v10h1000v10h-1000v10 h1000v10h-1000v10h1000v10h-1000v10 h1000v10h-1000v10h1000v10h-1000v10 h1000v10h-1000v10h1000v10h-1000v10 h1000v10h-1000v10h1000v10h-1000v10 h1000v10h-1000v10h1000v10h-1000v10 h1000v10h-1000v10h1000v10h-1000v10 h1000v10h-1000v10h1000v10h-1000v10 h1000v10h-1000v10h1000v10h-1000v10 h1000v10h-1000v10h1000v10h-1000v10 h1000v10h-1000v10h1000v10h-1000v10 h1000v10h-1000v10h1000v10h-1000v10 h1000v10h-1000v10 h1000v-780h-1000v750 h10v-750h10v750h10v-750h10v750 h10v-750h10v750h10v-750h10v750 h10v-750h10v750h10v-750h10v750 h10v-750h10v750h10v-750h10v750 h10v-750h10v750h10v-750h10v750 h10v-750h10v750h10v-750h10v750 h10v-750h10v750h10v-750h10v750 h10v-750h10v750h10v-750h10v750 h10v-750h10v750h10v-750h10v750 h10v-750h10v750h10v-750h10v750 h10v-750h10v750h10v-750h10v750 h10v-750h10v750h10v-750h10v750 h10v-750h10v750h10v-750h10v750 h10v-750h10v750h10v-750h10v750 h10v-750h10v750h10v-750h10v750 h10v-750h10v750h10v-750h10v750 h10v-750h10v750h10v-750h10v750 h10v-750h10v750h10v-750h10v750 h10v-750h10v750h10v-750h10v750 h10v-750h10v750h10v-750h10v750 h10v-750h10v750h10v-750h10v750 h10v-750h10v750h10v-750h10v750 h10v-750h10v750h10v-750h10v750 h10v-750h10v750h10v-750h10v750 h10v-750h10v750h10v-750h10v750 h10v-750h10v750"/>
<path class="outline" style="stroke-opacity:0.2" d="M0,0 h1000v50h-1000v50h1000v50h-1000v50  h1000v50h-1000v50h1000v50h-1000v50 h1000v50h-1000v50h1000v50h-1000v50 h1000v50h-1000v50h1000v50h-1000 h1000v-750h-1000v750 h50v-750h50v750h50v-750h50v750 h50v-750h50v750h50v-750h50v750 h50v-750h50v750h50v-750h50v750 h50v-750h50v750h50v-750h50v750 h50v-750h50v750h50v-750h50v750 h50v-750h50v750h50v-750h50v750 h50v-750h50v750h50v-750h50v750 "/>
<text x="0" style="text-anchor:middle;font-size:10px">
<tspan x="50" y="10">50</tspan>
<tspan x="100" y="10">100</tspan>
<tspan x="150" y="10">150</tspan>
<tspan x="200" y="10">200</tspan>
<tspan x="250" y="10">250</tspan>
<tspan x="300" y="10">300</tspan>
<tspan x="350" y="10">350</tspan>
<tspan x="400" y="10">400</tspan>
<tspan x="450" y="10">450</tspan>
<tspan x="500" y="10">500</tspan>
<tspan x="550" y="10">550</tspan>
<tspan x="600" y="10">600</tspan>
<tspan x="650" y="10">650</tspan>
<tspan x="700" y="10">700</tspan>
<tspan x="750" y="10">750</tspan>
<tspan x="800" y="10">800</tspan>
<tspan x="850" y="10">850</tspan>
<tspan x="900" y="10">900</tspan>
<tspan x="950" y="10">950</tspan>
</text>
<text style="text-anchor:start;font-size:10px">
<tspan x="980" y="53">50</tspan>
<tspan x="980" y="103">100</tspan>
<tspan x="980" y="153">150</tspan>
<tspan x="980" y="203">200</tspan>
<tspan x="980" y="253">250</tspan>
<tspan x="980" y="303">300</tspan>
<tspan x="980" y="353">350</tspan>
<tspan x="980" y="403">400</tspan>
<tspan x="980" y="453">450</tspan>
<tspan x="980" y="503">500</tspan>
<tspan x="980" y="553">550</tspan>
<tspan x="980" y="603">600</tspan>
<tspan x="980" y="653">650</tspan>
<tspan x="980" y="703">700</tspan>

</text>
<!-- end draw grid  -->

<defs>
	<g id="SideWing">
		<path d="
			m0,20
			q275,-20 450,0
			q-20,8 -15,60
			q-265,-55 -445,-45
			q-15,0 10,-17z
			" />

		<path id="MiddleLine" d="
			m0,25
			q175,-20 437,15" />

		<!-- Little lines on the down part of the wing -->
		<path id="LittleLines" d="
			m300,25
			q-13,20 -15,27
			m-100,-12
			q-0,-20 3,-22
			m-3,0
			q-7,20 -6,22
			m-178-15
			q-5,-0 -1,10" />
	</g>

	<g id="Motor">
		<circle cx="3" cy="1" r="35" style="fill: #ECF5F8"/>
		<circle cx="0" cy="0" r="27" style="fill: #3D2000"/>
		<circle cx="0" cy="0" r="17" style="stroke: black" stroke-width="3"/>
		<circle cx="0" cy="0" r="17" style="fill: #3D2000"/>
	</g>

	<g id="WingAndMotor">
	<use x="240" y="64" xlink:href="#Motor"/>
		<use x="0" y="0" xlink:href="#SideWing"/>
	</g>

	<path id="Fuselage" d="
		m0,0
		q-4,-52 15,-60
		q20,-100 100,-120
		q80,0 100,120
		q20,8 15,60"/>

	<g id="BackWing">
		<path d="
			m0,0
			q-115,-5 -280 -30
			l2,-8
			l-25,-8
			q125,15 290,25 z"/>

		<path d="
			m-6,-10
			q-115,-5 -272,-27"/>
	</g>

	<g id="UpperWing">
		<path d="
			m0,0
			q-5,-165 10,-360
			q15,175 15,360


			" />
		<path d="
			m10,0
			q-5,-165 0,-360" />
	</g>

	<g id="PlaneBody">
		<use x="50" y="-100" xlink:href="#BackWing"/>
		<use x="-185" y="-100" xlink:href="#BackWing" transform="scale(-1,1)"/>
		<use x="110" y="-180" xlink:href="#UpperWing"/>
		<use x="0" y="0" xlink:href="#Fuselage"/>

	</g>

	<g id="Plane">
		<use x="0" y="0" xlink:href="#PlaneBody"/>
		<use x="-434" y="-80" xlink:href="#WingAndMotor"/>
		<use x="-664" y="-80" xlink:href="#WingAndMotor" transform="scale(-1,1)"/>
	</g>
</defs>

	<use x="534" y="630" xlink:href="#Plane" transform="scale(0.7,0.7)"/>


</svg>
