<?xml version="1.0" standalone="no"?>
<?xml-stylesheet type="text/css" href="handson.css" ?>
<svg xmlns="http://www.w3.org/2000/svg" width="750" height="500" viewBox="0 0 750 500" xmlns:xlink="http://www.w3.org/1999/xlink">
<!-- Ivan ROGER
This is an SVG Animation of a plane
09/02/2016 -->

<defs>
	<g id="grid">
		<!-- draw background grid -->
		<path class="thin" style="stroke-opacity:0.2" d="M0,0 h750v10h-750v10h750v10h-750v10 h750v10h-750v10h750v10h-750v10 h750v10h-750v10h750v10h-750v10 h750v10h-750v10h750v10h-750v10 h750v10h-750v10h750v10h-750v10 h750v10h-750v10h750v10h-750v10 h750v10h-750v10h750v10h-750v10 h750v10h-750v10h750v10h-750v10 h750v10h-750v10h750v10h-750v10 h750v10h-750v10h750v10h-750v10 h750v10h-750v10h750v10h-750v10 h750v10h-750v10h750v10h-750v10 h750v10h-750v10h750v10h-750v10 h750v10h-750v10h750v10h-750v10 h750v10h-750v10h750v10h-750v10 h750v10h-750v10h750v10h-750v10 h750v10h-750v10h750v10h-750v10 h750v10h-750v10h750v10h-750v10 h750v10h-750v10h750v10h-750v10 h750v10h-750v10 h750v-780h-750v750 h10v-750h10v750h10v-750h10v750 h10v-750h10v750h10v-750h10v750 h10v-750h10v750h10v-750h10v750 h10v-750h10v750h10v-750h10v750 h10v-750h10v750h10v-750h10v750 h10v-750h10v750h10v-750h10v750 h10v-750h10v750h10v-750h10v750 h10v-750h10v750h10v-750h10v750 h10v-750h10v750h10v-750h10v750 h10v-750h10v750h10v-750h10v750 h10v-750h10v750h10v-750h10v750 h10v-750h10v750h10v-750h10v750 h10v-750h10v750h10v-750h10v750 h10v-750h10v750h10v-750h10v750 h10v-750h10v750h10v-750h10v750 h10v-750h10v750h10v-750h10v750 h10v-750h10v750h10v-750h10v750 h10v-750h10v750h10v-750h10v750 h10v-750h10v750h10v-750"/>
		<path class="outline" style="stroke-opacity:0.2" d="M0,0 h750v50h-750v50h750v50h-750v50  h750v50h-750v50h750v50h-750v50 h750v50h-750v50h750v50h-750v50 h750v50h-750v50h750v50h-750 h750v-750h-750v500 h50v-500h50v500h50v-500h50v500 h50v-500h50v500h50v-500h50v500 h50v-500h50v500h50v-500h50v500 h50v-500h50v500h50v-500"/>
		<text x="0" style="text-anchor:middle;font-size:10px">
			<tspan x="50" y="10">50</tspan>
			<tspan x="100" y="10">100</tspan>
			<tspan x="150" y="10">150</tspan>
			<tspan x="200" y="10">200</tspan>
			<tspan x="250" y="10">250</tspan>
			<tspan x="300" y="10">300</tspan>
			<tspan x="350" y="10">350</tspan>
			<tspan x="400" y="10">400</tspan>
			<tspan x="450" y="10">450</tspan>
			<tspan x="500" y="10">500</tspan>
			<tspan x="550" y="10">550</tspan>
			<tspan x="600" y="10">600</tspan>
			<tspan x="650" y="10">650</tspan>
			<tspan x="700" y="10">700</tspan>
			<tspan x="740" y="10">750</tspan>
		</text>
		<text style="text-anchor:end;font-size:10px">
			<tspan x="750" y="53">50</tspan>
			<tspan x="750" y="103">100</tspan>
			<tspan x="750" y="153">150</tspan>
			<tspan x="750" y="203">200</tspan>
			<tspan x="750" y="253">250</tspan>
			<tspan x="750" y="303">300</tspan>
			<tspan x="750" y="353">350</tspan>
			<tspan x="750" y="403">400</tspan>
			<tspan x="750" y="453">450</tspan>
			<tspan x="750" y="500">500</tspan>
		</text>
		<!-- end draw grid -->
	</g>

	<!-- ============== MOUNTAINS ============== -->
	<g id="mountain_colors_1" class="mountain">
		<rect x="0" y="-80" width="55" height="20" class="snow"/> <!-- TODO: Try to do melting snow -->
		<rect x="0" y="-60" width="55" height="10" class="dirt"/>
		<rect x="0" y="-50" width="55" height="50" class="grass"/>
	</g>
	<g id="mountain_colors_2" class="mountain">
		<rect x="0" y="-80" width="55" height="20" class="snow"/> <!-- TODO: Try to do melting snow -->
		<rect x="0" y="-60" width="55" height="10" class="dirt"/>
		<rect x="0" y="-50" width="55" height="50" class="grass"/>
	</g>
	<g id="mountain_colors_3" class="mountain">
		<rect x="0" y="-80" width="55" height="20" class="snow"/> <!-- TODO: Try to do melting snow -->
		<rect x="0" y="-60" width="55" height="10" class="dirt"/>
		<rect x="0" y="-50" width="55" height="50" class="grass"/>
	</g>
	<clipPath id="mountain_clip">
		<path d="M0,0 l30,-80 l25,80" />
	</clipPath>
	<g id="mountain1">
		<use xlink:href="#mountain_colors_1" style="clip-path: url(#mountain_clip)"/>
	</g>
	<g id="mountain2">
		<use xlink:href="#mountain_colors_2" style="clip-path: url(#mountain_clip)"/>
	</g>
	<g id="mountain3">
		<use xlink:href="#mountain_colors_3" style="clip-path: url(#mountain_clip)"/>
	</g>
	<g id="mountains">
		<use transform="translate(0,0) scale(1.7)" xlink:href="#mountain3"/>
		<use transform="translate(81,0) scale(2.1)" xlink:href="#mountain1"/>
		<use transform="translate(57,0) scale(1.2)" xlink:href="#mountain2"/>
	</g>

	<!-- ============== SUN ============== -->
	<g id="sunLight">
		<rect transform="rotate(180)" x="0" y="0" width="2" height="19">
			<animate attributeName="height" values="19;13;16;10;19" dur="6s" repeatCount="indefinite"/>
		</rect>
	</g>
	<g id="sun">
		<circle x="0" y="0" r="20" class="back"/>
		<circle x="0" y="0" r="16" class="in">
			<animate attributeName="r" values="16;11;14;9;16" dur="5s" repeatCount="indefinite"/>
		</circle>
		<use xlink:href="#sunLight" transform="rotate(+000) translate(0,-25)"/>
		<use xlink:href="#sunLight" transform="rotate(+022) translate(0,-25)"/>
		<use xlink:href="#sunLight" transform="rotate(+045) translate(0,-25)"/>
		<use xlink:href="#sunLight" transform="rotate(+068) translate(0,-25)"/>
		<use xlink:href="#sunLight" transform="rotate(+090) translate(0,-25)"/>
		<use xlink:href="#sunLight" transform="rotate(+112) translate(0,-25)"/>
		<use xlink:href="#sunLight" transform="rotate(+135) translate(0,-25)"/>
		<use xlink:href="#sunLight" transform="rotate(+158) translate(0,-25)"/>
		<use xlink:href="#sunLight" transform="rotate(+180) translate(0,-25)"/>

		<use xlink:href="#sunLight" transform="rotate(-022) translate(0,-25)"/>
		<use xlink:href="#sunLight" transform="rotate(-045) translate(0,-25)"/>
		<use xlink:href="#sunLight" transform="rotate(-068) translate(0,-25)"/>
		<use xlink:href="#sunLight" transform="rotate(-090) translate(0,-25)"/>
		<use xlink:href="#sunLight" transform="rotate(-112) translate(0,-25)"/>
		<use xlink:href="#sunLight" transform="rotate(-135) translate(0,-25)"/>
		<use xlink:href="#sunLight" transform="rotate(-158) translate(0,-25)"/>
		<use xlink:href="#sunLight" transform="rotate(-180) translate(0,-25)"/>
	</g>

	<!-- ============== ROAD ============== -->
	<g id="road">
		<rect x="0" y="0" width="120" height="80" class="back"/>
		<rect x="30" y="35" width="30" height="10" class="dash"/>
		<rect x="90" y="35" width="30" height="10" class="dash"/>
	</g>
	<g id="longRoad">
		<use x="0" y="0" xlink:href="#road"/>
		<use x="119" y="0" xlink:href="#road"/>
		<use x="237" y="0" xlink:href="#road"/>
		<use x="356" y="0" xlink:href="#road"/>
		<use x="474" y="0" xlink:href="#road"/>
		<use x="593" y="0" xlink:href="#road"/>
		<use x="712" y="0" xlink:href="#road"/>
		<use x="712" y="0" xlink:href="#road"/>
		<use x="830" y="0" xlink:href="#road"/>
		<use x="948" y="0" xlink:href="#road"/>
		<use x="1066" y="0" xlink:href="#road"/>
	</g>

	<!-- ============== TREES ============== -->
	<g id="pine">
		<path d="M40,70 h-40 l30,-20 h-25 l25,-17 h-20 l20,-15 h-15 l25,-12
			l25,12 h-15 l20,15 h-20 l25,17 h-25 l30,20 h-40" class="leaves"/>
		<rect x="30" y="70" width="20" height="30" class="log-outline"/>
		<rect x="33" y="70" width="14" height="27" class="log-in"/>
	</g>
	<g id="pineForest">
		<use xlink:href="#pine" transform="scale(0.5) translate(60,00)"/>
		<use xlink:href="#pine" transform="scale(0.5) translate(10,30)"/>
		<use xlink:href="#pine" transform="scale(0.3) translate(10,180)"/>
		<use xlink:href="#pine" transform="scale(0.4) translate(90,130)"/>
		<use xlink:href="#pine" transform="scale(0.7) translate(10,30)"/>
		<use xlink:href="#pine" transform="scale(0.5) translate(90,70)"/>
	</g>
	<g id="longPineForest">
		<use xlink:href="#pineForest" transform="translate(000,00)"/>
		<use xlink:href="#pineForest" transform="translate(050,10)"/>
		<use xlink:href="#pineForest" transform="translate(100,20)"/>
		<use xlink:href="#pineForest" transform="translate(150,20)"/>
		<use xlink:href="#pineForest" transform="translate(200,00)"/>
		<use xlink:href="#pineForest" transform="translate(250,20)"/>
		<use xlink:href="#pineForest" transform="translate(300,20)"/>
		<use xlink:href="#pineForest" transform="translate(350,10)"/>
		<use xlink:href="#pineForest" transform="translate(400,00)"/>
		<use xlink:href="#pineForest" transform="translate(450,00)"/>
		<use xlink:href="#pineForest" transform="translate(500,10)"/>
		<use xlink:href="#pineForest" transform="translate(550,20)"/>
		<use xlink:href="#pineForest" transform="translate(600,20)"/>
		<use xlink:href="#pineForest" transform="translate(650,00)"/>
		<use xlink:href="#pineForest" transform="translate(700,20)"/>
		<use xlink:href="#pineForest" transform="translate(750,20)"/>
	</g>

	<!-- ============== HOUSE ============== -->
	<g id="window">
		<rect x="0" y="0" width="60" height="80" class="outline"/>
		<rect x="5" y="5" width="50" height="70" class="light"/> <!-- TODO: Animate color -->
		<rect x="28" y="0" width="4" height="80" class="outline"/>
		<rect x="0" y="38" width="60" height="4" class="outline"/>
	</g>
	<g id="mountainHouse"><!-- TODO: Add snow on the roof -->
		<rect x="10" y="30" width="120" height="60" class="wall"/>
		<rect x="60" y="50" width="20" height="40" class="door"/> <!-- Door -->
		<use xlink:href="#window" transform="translate(20,40) scale(0.4)"/>
		<use xlink:href="#window" transform="translate(95,40) scale(0.4)"/>
		<path d="M0,30 l70,-30 l70,30 z" class="roof"/> <!-- Roof -->
		<rect x="40" y="00" width="10" height="25" class="cheminey"/> <!-- Cheminey -->
	</g>

	<!-- ============== CLOUDS ============== -->
	<g id="cloud">
		<path d="M30,20
			c-5,-5 20,-10 25,-5
			c-5,-15 35,-15 30,0
			c20,-10 40,20 25,25
			c20,10 -10,25 -25,20
			c-5,10 -70,5 -65,-10
			q-14,-27, 10,-30 "/>
	</g>

	<g id="darkClouds">
		<use x="0" y="10" class="darkCloud" xlink:href="#cloud" transform="scale(1.2)"/>
		<use x="30" y="30" class="darkCloud" xlink:href="#cloud" transform="scale(1.1)"/>
		<use x="40" y="20" class="darkCloud" xlink:href="#cloud" transform="scale(1.4)"/>
		<use x="50" y="0" class="darkCloud" xlink:href="#cloud" transform="scale(0.9)"/>
		<use x="60" y="10" class="darkCloud" xlink:href="#cloud" transform="scale(1.7)"/>
		<use x="80" y="-10" class="darkCloud" xlink:href="#cloud" transform="scale(1.6)"/>
		<use x="70" y="20" class="darkCloud" xlink:href="#cloud" transform="scale(1.0)"/>
		<use x="80" y="10" class="darkCloud" xlink:href="#cloud" transform="scale(1.1)"/>
		<use x="120" y="30" class="darkCloud" xlink:href="#cloud" transform="scale(1.2)"/>
		<use x="150" y="10" class="darkCloud" xlink:href="#cloud" transform="scale(1.5)"/>
		<use x="160" y="10" class="darkCloud" xlink:href="#cloud" transform="scale(1.8)"/>
		<use x="230" y="30" class="darkCloud" xlink:href="#cloud" transform="scale(1.6)"/>
		<use x="250" y="0" class="darkCloud" xlink:href="#cloud" transform="scale(1.4)"/>
		<use x="270" y="20" class="darkCloud" xlink:href="#cloud" transform="scale(1.5)"/>
		<use x="280" y="10" class="darkCloud" xlink:href="#cloud" transform="scale(1.6)"/>
		<use x="320" y="30" class="darkCloud" xlink:href="#cloud" transform="scale(1.5)"/>
		<use x="90" y="-10" class="darkCloud" xlink:href="#cloud" transform="scale(1.4)"/>
		<use x="350" y="10" class="darkCloud" xlink:href="#cloud" transform="scale(1.5)"/>
	</g>

	<g class="lightCloud" id="animatedCloud1">
		<use xlink:href="#cloud" transform="scale(0.6) translate(0,20)">
			<animateMotion path="M0,0 h2000" begin="0s" dur="14s" repeatCount="indefinite" />
		</use>
	</g>
	<g class="lightCloud" id="animatedCloud2">
		<use xlink:href="#cloud" transform="scale(1.1) translate(0,30)">
			<animateMotion path="M500,0 h1500 M0,0 h500" begin="0s" dur="12s" repeatCount="indefinite" />
		</use>
	</g>
	<g class="lightCloud" id="animatedCloud3">
		<use xlink:href="#cloud" transform="scale(0.9) translate(0,10)">
			<animateMotion path="M200,0 h1800 M0,0 h200" begin="0s" dur="11s" repeatCount="indefinite" />
		</use>
	</g>
	<g class="lightCloud" id="animatedCloud4">
		<use xlink:href="#cloud" transform="scale(0.7) translate(0,80)">
			<animateMotion path="M800,0 h1200 M0,0 h800" begin="0s" dur="13s" repeatCount="indefinite" />
		</use>
	</g>
	<g class="lightCloud" id="animatedCloud5">
		<use xlink:href="#cloud" transform="scale(0.8) translate(0,80)">
			<animateMotion path="M50,0 h1950 M0,0 h50" begin="0s" dur="12s" repeatCount="indefinite" />
		</use>
	</g>
	<g class="lightCloud" id="animatedCloud6">
		<use xlink:href="#cloud" transform="scale(0.9) translate(0,80)">
			<animateMotion path="M1200,0 h800 M0,0 h1200" begin="0s" dur="11s" repeatCount="indefinite" />
		</use>
	</g>
	<g class="lightCloud" id="animatedCloud7">
		<use xlink:href="#cloud" transform="scale(0.9) translate(0,80)">
			<animateMotion path="M1500,0 h500 M0,0 h1500" begin="0s" dur="10s" repeatCount="indefinite" />
		</use>
	</g>
	<g class="lightCloud" id="animatedCloud8">
		<use xlink:href="#cloud" transform="scale(0.9) translate(0,80)">
			<animateMotion path="M1600,0 h400 M0,0 h1600" begin="0s" dur="11s" repeatCount="indefinite" />
		</use>
	</g>
	<g class="lightCloud" id="animatedCloud9">
		<use xlink:href="#cloud" transform="scale(0.9) translate(0,80)">
			<animateMotion path="M1900,0 h100 M0,0 h1900" begin="0s" dur="12s" repeatCount="indefinite" />
		</use>
	</g>

	<!-- ============== SIDE PLANE ============== -->
	<path id="Fuselage1" d="
		m0,0
		l20,-5
		l60,50
		q275-20 275,-15
		q20,10 48,15
		q35,18 -24,40
		l-114,11
		q-22,7 -36,6
		q-40,-2 -55,-3
		l-86,-6
		q-80,-15 -80,-25
		q0,-10 20,-20 z"/>

	<path id="PilotWindow" d="
		m0,0
		q-10,5 -20,8
		l2,10
		q10,-5 27,-14z"/>

	<rect id="PassengerWindow" height="5" width="5"/>

	<g id="PassengerWindowGroup">
		<use x="0" y="0" xlink:href="#PassengerWindow"/>
		<use x="10" y="0" xlink:href="#PassengerWindow"/>
		<use x="20" y="0" xlink:href="#PassengerWindow"/>
		<use x="30" y="0" xlink:href="#PassengerWindow"/>
		<use x="40" y="0" xlink:href="#PassengerWindow"/>
		<use x="50" y="0" xlink:href="#PassengerWindow"/>
		<use x="60" y="0" xlink:href="#PassengerWindow"/>
		<use x="70" y="0" xlink:href="#PassengerWindow"/>
	</g>

	<path id="Door" d="
		m0,0
		l-1.5,15
		l1.5,15
		l15,-2
		l-1.5,-15
		l1.5,-15z"/>

	<g id="PlaneBody1">
		<use x="0" y="0" xlink:href="#Fuselage1"/>
		<use x="383" y="40" xlink:href="#PilotWindow"/>
		<use x="240" y="80" xlink:href="#PassengerWindowGroup" transform="rotate(-4)"/>
		<use x="335" y="45" xlink:href="#Door"/>
		<use x="120" y="75" xlink:href="#PassengerWindowGroup" transform="rotate(-3)"/>
		<use x="215" y="53" xlink:href="#Door"/>
		<use x="115" y="70" xlink:href="#Door" transform="scale(0.85)"/>
	</g>

	<path id="RightWing" d="
		m0,0
		q-8,10 -15,20
		l-80,60
		q15,10 120,-60
		q17,-13 35,-25
		q-10,-5 -60,5 "/>

	<g id="2Motor">
		<path d="
			m0,0
			q40,-20 60-12
			q7,12 0,24
			q-20,7 -60,-4"/>
		<ellipse id="Motor6" cx="56" cy="0" rx="5" ry="10"/>
		<ellipse id="Motor5" cx="56" cy="0" rx="5" ry="10"/>
	</g>

	<g id="RightWingMotor">
		<use x="-5" y="30" xlink:href="#2Motor"/>
		<use x="0" y="0" xlink:href="#RightWing"/>
	</g>

	<path id="LeftWing" d="
		m0,0
		q3,-35  1,-60
		l15,5
		q12,40 20,60"/>

	<path id="RightBackWing" d="
		m0,0
		q-15,10 -30,20
		l15,-2
		q30,-13 45,-20
		q-10,-5 -30,2"/>

	<path id="LeftBackWing" d="
		m0,0
		l2,-5
		l10,2
		l2,15"/>

	<g id="Plane1">
		<use x="220" y="40" xlink:href="#LeftWing"/>
		<use x="50" y="20" xlink:href="#LeftBackWing"/>
		<use x="0" y="0" xlink:href="#PlaneBody1"/>
		<use x="210" y="95" xlink:href="#RightWingMotor"/>
		<use x="30" y="70" xlink:href="#RightBackWing"/>
	</g>

	<!-- ============== SEESAW ============== -->
	<g id="guy">
		<ellipse cx="0" cy="-25" rx="15" ry="25"/>
		<circle cx="0" cy="-58" r="12" style="fill: pink"/>
	</g>

	<g id="seesaw">
		<path d="M-25,60 h50 l-25,-50 l-25,50" style="fill: #4A2D19"/>
		<g>
			<g transform="translate(-90,0)">
				<g>
					<use xlink:href="#guy" style="fill: blue"/>
					<animateTransform repeatCount="indefinite" attributeType="XML" attributeName="transform" type="rotate" dur="3s" values="25;0;-25;0;25" begin="0s"/>
				</g>
			</g>
			<g transform="translate(90,0)">
				<g>
					<use xlink:href="#guy" style="fill: red"/>
					<animateTransform repeatCount="indefinite" attributeType="XML" attributeName="transform" type="rotate" dur="3s" values="25;0;-25;0;25" begin="0s"/>
				</g>
			</g>
			<rect x="-100" y="0" width="200" height="20" style="fill: sandybrown"/>
			<animateTransform repeatCount="indefinite" attributeType="XML" attributeName="transform" type="rotate" dur="3s" values="-25;0;25;0;-25" begin="0s"/>
		</g>
	</g>

	<!-- ============== AIRPORT ============== -->
	<g id="controlTower">
		<rect x="20" y="45" width="30" height="70" class="base"/>
		<path d="M0,15 h70 l-20,30 h-30 l-20,-30" class="base"/>
		<path d="M5,20 h55 l-10,15 h-30 l-10,-15" class="window"/>
		<rect x="32.5" y="0" width="5" height="15" class="radar"/>
		<rect x="10" y="0" width="50" height="10" class="radar">
			<animate attributeType="xml" attributeName="width" values="50;5;50" begin="0s" dur="5s" repeatCount="indefinite"/>
			<animate attributeType="xml" attributeName="x" values="10;32.5;10" begin="0s" dur="5s" repeatCount="indefinite"/>
		</rect>
	</g>
	<g id="airport">
		<path d="M10,60 h500 l10,300 h-510 l10,-300" class="building"/>
		<use x="70" y="0" xlink:href="#controlTower" transform="scale(1.2)"/>
	</g>

	<linearGradient id="skyColor" x1="0" y1="0" x2="0" y2="100%">
    <stop offset="0" stop-color="#6dacff">
			<animate attributeName="stop-color" begin="scene1.start" from="#6dacff" to="#FC62A4" dur="26s"/>
		</stop>
    <stop offset="100%" stop-color="#2B57BA">
			<animate attributeName="stop-color" begin="scene1.start" from="#2B57BA" to="#551321" dur="26s"/>
		</stop>
  </linearGradient>

	<g id="grass">
		<rect width="2100" height="400"/>
	</g>

	<g id="sea">
		<rect width="2100" height="320"/>
	</g>

	<!-- ============== PALMS ============== -->
	<g id='PalmTree'>
		<path id="PalmTrunk" d="
			m0,0
			q-10,-40 60,-200
			h15
			q-55,135 -40,200
			q-10,5 -37,0"/>

		<path id="PalmLeaves" d="
			m70,-195
			q20,40 24,85
			q20,-40 -10,-85
			q33,33 55,71
			q0,-55 -55,-80
			q26,6 40,13
			q-15,-25 -46,-27
			q-10,-15 -10,-1
			q-30,-40 -53,-27
			q23,10 42,24
			q-68,-22 -96,17
			q42,-16 85,-8
			q-73,33 -66,89
			q33,-49 83,-73"/>
	</g>
	<g id="PalmForest">
		<use x="50" y="300" xlink:href="#PalmTree"/>
		<use x="-40" y="300" xlink:href="#PalmTree" transform="scale(-1,1)"/>
		<use x="120" y="300" xlink:href="#PalmTree"/>
		<use x="-192" y="300" xlink:href="#PalmTree" transform="scale(-1,1)"/>
		<use x="280" y="300" xlink:href="#PalmTree"/>
		<use x="-260" y="300" xlink:href="#PalmTree" transform="scale(-1,1)"/>
	</g>
</defs>
<!-- Plane of the first scene -->
<defs>
	<g id="SideWing">
		<path d="
			m0,20
			q275,-20 450,0
			q-20,8 -15,60
			q-265,-55 -445,-45
			q-15,0 10,-17z
			" />

		<path id="MiddleLine" d="
			m0,25
			q175,-20 437,15" />

		<!-- Little lines on the down part of the wing -->
		<path id="LittleLines" d="
			m300,25
			q-13,20 -15,27
			m-100,-12
			q-0,-20 3,-22
			m-3,0
			q-7,20 -6,22
			m-178-15
			q-5,-0 -1,10" />
	</g>

	<g id="Motor">
		<circle id="Motor1" cx="3" cy="1" r="35" />
		<circle id="Motor2" cx="0" cy="0" r="27" />
		<circle id="Motor3" cx="0" cy="0" r="17" />
		<circle id="Motor4" cx="0" cy="0" r="17" />
	</g>

	<g id="WingAndMotor">
	<use x="240" y="64" xlink:href="#Motor"/>
		<use x="0" y="0" xlink:href="#SideWing"/>
	</g>

	<path id="Fuselage" d="
		m0,0
		q-4,-52 15,-60
		q20,-100 100,-120
		q80,0 100,120
		q20,8 15,60
		q-5,20 -115,20
		q-110,0 -115,-20"/>

	<g id="BackWing">
		<path d="
			m0,0
			q-115,-5 -280 -30
			l2,-8
			l-25,-8
			q125,15 290,25 z"/>

		<path d="
			m-6,-10
			q-115,-5 -272,-27"/>
	</g>

	<g id="UpperWing">
		<path d="
			m0,0
			q-5,-165 10,-360
			q15,175 15,360			" />

		<path d="
			m10,0
			q-5,-165 0,-360" />
	</g>

	<g id="PlaneBody">
		<use x="50" y="-100" xlink:href="#BackWing"/>
		<use x="-185" y="-100" xlink:href="#BackWing" transform="scale(-1,1)"/>
		<use x="110" y="-180" xlink:href="#UpperWing"/>
		<use x="0" y="0" xlink:href="#Fuselage"/>
	</g>

	<path id="Wheel" d="
		m0,0
		q-5,20 0,40
		q5,3 10,0
		q5-20 0,-40
		q-5,-3 -10,0"/>

	<g id="LandingGear">
		<rect id="Axle1" x="16" y="-20" height="40" width="8"/>
		<rect id="Axle2" x="8" y="16" height="8" width="20"/>
		<use x="0" y="0" xlink:href="#Wheel"/>
		<use x="30" y="0" xlink:href="#Wheel"/>
	</g>

	<g id="Plane">
		<use x="0" y="0" xlink:href="#PlaneBody"/>
		<use x="-50" y="10" xlink:href="#LandingGear"/>
		<use x="242" y="10" xlink:href="#LandingGear"/>
		<use x="-434" y="-80" xlink:href="#WingAndMotor"/>
		<use x="-664" y="-80" xlink:href="#WingAndMotor" transform="scale(-1,1)"/>
	</g>
</defs>
<!-- End plane of the first scene -->
<!-- WalkBridge of the first Scene -->
<defs>
  <g id="WalkBridgeWindow">
    <rect id="Glass" height="50" width="40"/>
    <g id="Frame">
      <path d="
        m0,0
        l40,50"/>
      <rect y="-4"  height="4" width="40"/>
      <rect y="50"  height="50" width="40"/>
    </g>
  </g>

  <g id="WalkBridgeWindowGroup">
    <use x="0" y="0" xlink:href="#WalkBridgeWindow"/>
    <use x="42" y="0" xlink:href="#WalkBridgeWindow"/>
    <use x="84" y="0" xlink:href="#WalkBridgeWindow"/>
    <use x="126" y="0" xlink:href="#WalkBridgeWindow"/>
    <use x="168" y="0" xlink:href="#WalkBridgeWindow"/>
    <use x="210" y="0" xlink:href="#WalkBridgeWindow"/>
  </g>

  <g id="WalkBridge">
    <use x="0" y="0" xlink:href="#WalkBridgeWindowGroup"/>
    <use x="250" y="0" xlink:href="#WalkBridgeWindowGroup"/>
    <path id="BetweenPlaneAndBridge" d="
      m0,-4
      q-50,-25 -60,-15
      q30,50 0,130
      q10,10 60,-10"/>
  </g>
</defs>
<!-- End WalkBridge of the first Scene-->

<!-- Landscape of the first Scene -->
<defs>
	<path id="Marking" d="
		m0,0
		l10,-100
		h20
		l10,100 z"/>

	<g id="AirStrip">
		<path id="Road" d="
			m0,0
			l150,-750
			h200
			l150,750 z"/>
		<use x="240" y="0" xlink:href="#Marking"/>
		<use x="300" y="-270" xlink:href="#Marking" transform="scale(0.8,0.8)"/>
		<use x="345" y="-550" xlink:href="#Marking" transform="scale(0.7,0.7)"/>
		<use x="370" y="-830" xlink:href="#Marking" transform="scale(0.65,0.65)"/>
		<use x="485" y="-1350" xlink:href="#Marking" transform="scale(0.5,0.5)"/>
	</g>

  <g id="guy">
		<ellipse cx="0" cy="-25" rx="15" ry="25"/>
		<circle cx="0" cy="-58" r="12" style="fill: pink"/>
	</g>

</defs>
<!--
	========================================================================================================================
	======================================================== SCENES ========================================================
	========================================================================================================================
 -->
<g id="display">

	<g>
		<rect x="0" y="0" width="750" height="500" style="fill: url(#skyColor)"/>
		<use x="15" y="15" xlink:href="#sun">
			<animate attributeType="css" attributeName="opacity" from="1" to="0" begin="scene2Start.begin" dur="0.5s" />
			<animate attributeType="css" attributeName="opacity" from="0" to="1" begin="scene2End.begin" dur="1s" />
			<animateTransform attributeType="XML" attributeName="transform" type="translate" values="0,15;315,0;730,15" begin="scene1.begin" dur="26s" fill="freeze" />
		</use>

		<g>
			<!-- ============== BACKGROUND - SCENE 1 ============== -->
			<use y="180" xlink:href="#grass"/>
			<use xlink:href="#animatedCloud8"/>
			<use x="-20" y="200" xlink:href="#mountains" transform="scale(1.1)"/>
			<use x="320" y="200" xlink:href="#mountains"/>
			<use xlink:href="#animatedCloud1"/>
			<use x="150" y="200" xlink:href="#mountains" transform="scale(0.9)"/>
			<use x="670" y="200" xlink:href="#mountains"/>
			<use x="490" y="200" xlink:href="#mountains" transform="scale(0.9)"/>
			<use xlink:href="#animatedCloud4"/>
			<use x="830" y="200" xlink:href="#mountains"/>
			<use x="900" y="180" xlink:href="#mountains" transform="scale(1.2)"/>
			<use x="1300" y="200" xlink:href="#mountains"/>
			<use xlink:href="#animatedCloud9"/>
			<use x="1560" y="200" xlink:href="#mountains"/>
			<use x="1720" y="200" xlink:href="#mountains"/>
			<use x="2120" y="200" xlink:href="#mountains" transform="scale(0.9)"/>
			<use x="-30" y="130" xlink:href="#longPineForest"/>
			<use x="750" y="130" xlink:href="#longPineForest"/>
			<use x="1500" y="130" xlink:href="#longPineForest"/>
			<use x="400" y="150" xlink:href="#mountainHouse"/>
			<use x="0" y="300" xlink:href="#longRoad"/>
			<g transform="translate(1650,250)"><use xlink:href="#seesaw" transform="scale(0.4)"/></g>

			<!-- ============== BACKGROUND - SCENE 2 ============== -->
			<g transform="translate(3000,0)">
				<use y="140" xlink:href="#sea"/>
				<rect id="sand" x="0" y="180" width="2100" height="320"/>
				<use x="1200" y="300" xlink:href="#PalmForest" transform="scale(0.4)"/>
				<use x="1800" y="325" xlink:href="#PalmForest" transform="scale(0.4)"/>
				<use x="2400" y="310" xlink:href="#PalmForest" transform="scale(0.4)"/>
				<use x="2800" y="345" xlink:href="#PalmForest" transform="scale(0.4)"/>
				<use x="3200" y="325" xlink:href="#PalmForest" transform="scale(0.4)"/>
				<use x="3700" y="310" xlink:href="#PalmForest" transform="scale(0.4)"/>
				<use x="4300" y="330" xlink:href="#PalmForest" transform="scale(0.4)"/>
				<use x="300" y="300" xlink:href="#longRoad"/>
			</g>

			<!-- ============== PLANE ============== -->
			<use id="planeUse" x="100" y="250" xlink:href="#Plane1">
				<animateMotion path="M0,0 h550 c350,00 400,-50 900,-400 q200,-160 300,-150 h50" begin="scene1.begin" dur="11s" fill="freeze"/>
				<animateTransform attributeName="transform" type="rotate" values="0;-5;-10;0" begin="scene1.begin" dur="11s" fill="freeze"/>
				<animateTransform attributeName="transform" type="rotate" values="0;10;5;0" begin="scene3.begin" dur="11s" fill="freeze"/>

				<animateMotion path="M1800,-550 h500" begin="scene2.begin" dur="4s" fill="freeze"/>
				<animateTransform id="turb1" attributeType="XML" type="translate" values="0,0;0,10;0,0" begin="scene2Start.end" dur="0.5s" attributeName="transform"/>
				<animateTransform id="turb2" attributeType="XML" type="translate" values="0,0;5,5;0,0" begin="stormPause.end" dur="0.5s" attributeName="transform"/>
				<animateTransform id="turb3" attributeType="XML" type="translate" values="0,0;-5,10;0,0" begin="stormPause2.end" dur="0.5s" attributeName="transform"/>

				<animateMotion path="M2300,-550 h50 c350,00 400,50 900,400 q200,160 300,150 h500" begin="scene3.begin" dur="11s" fill="freeze"/>
			</use>
			<!-- <path d="M100,250 h550 c350,00 400,-50 900,-400 q200,-160 300,-150 h50" stroke="black" fill="none" stroke-width="2"/> -->
			<!-- <path d="M1900,-300 h500" stroke="black" fill="none" stroke-width="2"/> -->
			<!-- <path d="M2400,-300 h50 c350,00 400,50 900,400 q200,160 300,150 h500" stroke="black" fill="none" stroke-width="2"/> -->

			<!-- ============== FOREGROUND - SCENE 1 ============== -->
			<use xlink:href="#animatedCloud2"/>
			<use xlink:href="#animatedCloud6"/>
			<use xlink:href="#animatedCloud5"/>
			<use xlink:href="#animatedCloud3"/>
			<use xlink:href="#animatedCloud7"/>
			<use x="130" y="350" xlink:href="#airport"/>

			<!-- ============== FOREGROUND - SCENE 2 ============== -->
			<g transform="translate(3000,0)">
				<use x="2200" y="785" xlink:href="#PalmForest" transform="scale(0.4)"/>
				<use x="2630" y="845" xlink:href="#PalmForest" transform="scale(0.4)"/>
				<use x="3290" y="755" xlink:href="#PalmForest" transform="scale(0.4)"/>
				<use x="1540" y="330" xlink:href="#airport"/>
			</g>

			<animateTransform id="scene1Start" begin="scene0End.end" dur="4s" type="translate" attributeType="XML" attributeName="transform"/>
			<animateMotion id="scene1" path="M0,0 h-550 c-350,0 -400,50 -900,400 q-200,160 -300,150 h-50" begin="scene1Start.end" dur="11s" fill="freeze"/>
			<animateMotion id="scene2" path="M-1800,550 h-500" begin="scene1.end" dur="4s" fill="freeze"/>
			<animateMotion id="scene3" path="M-2300,550 h-50 c-350,0 -400,-50 -900,-400 q-200,-160 -300,-150 h-500" begin="scene2.end" dur="11s" fill="freeze"/>
		</g>

		<!-- ============== CLOUDS - SCENE 2 ============== -->
		<g transform="translate(0,-200)">
			<use x="-200" y="10" xlink:href="#darkClouds"/>
			<use x="0" y="-10" xlink:href="#darkClouds"/>
			<use x="500" y="20" xlink:href="#darkClouds"/>
			<animate id="scene2Start" attributeType="css" attributeName="opacity" values="0;1" begin="scene2.begin" dur="2s" fill="freeze"/>
			<animateTransform attributeName="transform" type="translate" values="0,-200;0,-30" begin="scene2Start.begin" dur="2s" fill="freeze"/>
			<animateTransform id="stormStart" begin="scene2Start.end" dur="0.5s" type="translate" attributeType="XML" attributeName="transform"/>
			<animateTransform id="stormPause" begin="turb1.end" dur="0.4s" type="translate" attributeType="XML" attributeName="transform"/>
			<animateTransform id="stormPause2" begin="turb2.end" dur="0.4s" type="translate" attributeType="XML" attributeName="transform"/>
			<animateTransform id="stormEnd" begin="turb3.end" dur="0.5s" type="translate" attributeType="XML" attributeName="transform"/>
			<animate id="scene2End" attributeType="css" attributeName="opacity" values="1;0" begin="stormEnd.end" dur="2s" fill="freeze"/>
			<animateTransform attributeName="transform" type="translate" values="0,-30;0,-200" begin="scene2End.begin" dur="2s" fill="freeze"/>
		</g>

		<rect width="100%" height="100%" id="storm">
			<animate id="stormAnim" attributeType="css" attributeName="opacity" values="0;0.9;0;0;0.9;0;0.9;0" begin="turb1.begin; turb2.begin; turb3.begin;" dur="0.4s"/>
		</rect>
	</g>
	<g id="scene0">
		<rect x="0" y="0" width="750" height="500" style="fill: url(#skyColor)"/>
		<use y="150" xlink:href="#grass"/>
		<use x="15" y="15" xlink:href="#sun"/>
		<use x="-30" y="80" xlink:href="#longPineForest"/>
		<use x="750" y="80" xlink:href="#longPineForest"/>
		<use x="1500" y="80" xlink:href="#longPineForest"/>
		<use x="1000" y="1250" xlink:href="#AirStrip" transform="scale(0.4)"/>
		<use id="Guy1" x="1981" y="1120" xlink:href="#guy" transform="scale(0.4)">
			<animateMotion path="M0,0 h-260" begin="4s" dur="5s"/>
		</use>
		<use id="Guy2" x="1981" y="1120" xlink:href="#guy" transform="scale(0.4)">
			<animateMotion path="M0,0 h-260" begin="5s" dur="5s"/>
		</use>
		<use id="Guy3" x="1981" y="1120" xlink:href="#guy" transform="scale(0.4)">
			<animateMotion path="M0,0 h-260" begin="6s" dur="5s"/>
		</use>
		<use id="Guy4" x="1981" y="1120" xlink:href="#guy" transform="scale(0.4)">
			<animateMotion path="M0,0 h-260" begin="7s" dur="5s"/>
		</use>
		<use x="1981" y="1040" xlink:href="#WalkBridge" transform="scale(0.4)"> <!--1381-->
			<animateMotion path="M0,0 h-240" begin="0s" dur="3s" fill="freeze"/>
			<animateMotion path="M-240,0 h240" begin="12s" dur="3s" fill="freeze"/>
		</use>
		<use x="1140" y="1170" xlink:href="#Plane" transform="scale(0.4)"/>
		<animateTransform id="scene0Anim" begin="0s" dur="15s" type="translate" attributeType="XML" attributeName="transform"/>
		<animate id="scene0End" attributeType="css" attributeName="opacity" values="1;0" begin="scene0Anim.end" dur="2s" fill="freeze"/>
	</g>

	<!-- <use id="gridDisplay" xlink:href="#grid"/> -->

	<text x="10" y="15" style="opacity: 0;">
		<tspan>Scene0</tspan>
		<animate attributeName="opacity" attributeType="css" from="0" to="1" begin="scene0Anim.begin" dur="0.1s" fill="freeze"/>
		<animate attributeName="opacity" attributeType="css" from="1" to="0" begin="scene0End.end" dur="0.1s" fill="freeze"/>
	</text>
	<text x="10" y="15" style="opacity: 0;">
		<tspan>Scene1</tspan>
		<animate attributeName="opacity" attributeType="css" from="0" to="1" begin="scene1.begin" dur="0.1s" fill="freeze"/>
		<animate attributeName="opacity" attributeType="css" from="1" to="0" begin="scene1.end" dur="0.1s" fill="freeze"/>
	</text>
	<text x="10" y="15" style="opacity: 0;">
		<tspan>Scene2</tspan>
		<animate attributeName="opacity" attributeType="css" from="0" to="1" begin="scene2.begin" dur="0.1s" fill="freeze"/>
		<animate attributeName="opacity" attributeType="css" from="1" to="0" begin="scene2.end" dur="0.1s" fill="freeze"/>
	</text>
	<text x="10" y="45" style="opacity: 0;">
		<tspan>Storm</tspan>
		<animate attributeName="opacity" attributeType="css" from="0" to="1" begin="stormStart.begin" dur="0.1s" fill="freeze"/>
		<animate attributeName="opacity" attributeType="css" from="1" to="0" begin="stormEnd.end" dur="0.1s" fill="freeze"/>
	</text>
	<text x="10" y="60" style="opacity: 0;">
		<tspan>Turb 1</tspan>
		<animate attributeName="opacity" attributeType="css" from="0" to="1" begin="turb1.begin" dur="0.1s" fill="freeze"/>
		<animate attributeName="opacity" attributeType="css" from="1" to="0" begin="turb1.end" dur="0.1s" fill="freeze"/>
	</text>
	<text x="10" y="60" style="opacity: 0;">
		<tspan>Turb 2</tspan>
		<animate attributeName="opacity" attributeType="css" from="0" to="1" begin="turb2.begin" dur="0.1s" fill="freeze"/>
		<animate attributeName="opacity" attributeType="css" from="1" to="0" begin="turb2.end" dur="0.1s" fill="freeze"/>
	</text>
	<text x="10" y="60" style="opacity: 0;">
		<tspan>Turb 3</tspan>
		<animate attributeName="opacity" attributeType="css" from="0" to="1" begin="turb3.begin" dur="0.1s" fill="freeze"/>
		<animate attributeName="opacity" attributeType="css" from="1" to="0" begin="turb3.end" dur="0.1s" fill="freeze"/>
	</text>
	<text x="10" y="15" style="opacity: 0;">
		<tspan>Scene3</tspan>
		<animate attributeName="opacity" attributeType="css" from="0" to="1" begin="scene3.begin" dur="0.1s" fill="freeze"/>
		<animate attributeName="opacity" attributeType="css" from="1" to="0" begin="scene3.end" dur="0.1s" fill="freeze"/>
	</text>
</g>
</svg>
