<?xml version="1.0" standalone="no"?>
<?xml-stylesheet type="text/css" href="handson.css" ?>
<svg xmlns="http://www.w3.org/2000/svg" width="750" height="500" viewBox="0 0 750 500" xmlns:xlink="http://www.w3.org/1999/xlink">
<!-- Ivan ROGER
This is an SVG Animation of a plane
09/02/2016 -->

<defs>
	<g id="grid">
		<!-- draw background grid -->
		<path class="thin" style="stroke-opacity:0.2" d="M0,0 h750v10h-750v10h750v10h-750v10 h750v10h-750v10h750v10h-750v10 h750v10h-750v10h750v10h-750v10 h750v10h-750v10h750v10h-750v10 h750v10h-750v10h750v10h-750v10 h750v10h-750v10h750v10h-750v10 h750v10h-750v10h750v10h-750v10 h750v10h-750v10h750v10h-750v10 h750v10h-750v10h750v10h-750v10 h750v10h-750v10h750v10h-750v10 h750v10h-750v10h750v10h-750v10 h750v10h-750v10h750v10h-750v10 h750v10h-750v10h750v10h-750v10 h750v10h-750v10h750v10h-750v10 h750v10h-750v10h750v10h-750v10 h750v10h-750v10h750v10h-750v10 h750v10h-750v10h750v10h-750v10 h750v10h-750v10h750v10h-750v10 h750v10h-750v10h750v10h-750v10 h750v10h-750v10 h750v-780h-750v750 h10v-750h10v750h10v-750h10v750 h10v-750h10v750h10v-750h10v750 h10v-750h10v750h10v-750h10v750 h10v-750h10v750h10v-750h10v750 h10v-750h10v750h10v-750h10v750 h10v-750h10v750h10v-750h10v750 h10v-750h10v750h10v-750h10v750 h10v-750h10v750h10v-750h10v750 h10v-750h10v750h10v-750h10v750 h10v-750h10v750h10v-750h10v750 h10v-750h10v750h10v-750h10v750 h10v-750h10v750h10v-750h10v750 h10v-750h10v750h10v-750h10v750 h10v-750h10v750h10v-750h10v750 h10v-750h10v750h10v-750h10v750 h10v-750h10v750h10v-750h10v750 h10v-750h10v750h10v-750h10v750 h10v-750h10v750h10v-750h10v750 h10v-750h10v750h10v-750"/>
		<path class="outline" style="stroke-opacity:0.2" d="M0,0 h750v50h-750v50h750v50h-750v50  h750v50h-750v50h750v50h-750v50 h750v50h-750v50h750v50h-750v50 h750v50h-750v50h750v50h-750 h750v-750h-750v500 h50v-500h50v500h50v-500h50v500 h50v-500h50v500h50v-500h50v500 h50v-500h50v500h50v-500h50v500 h50v-500h50v500h50v-500"/>
		<text x="0" style="text-anchor:middle;font-size:10px">
			<tspan x="50" y="10">50</tspan>
			<tspan x="100" y="10">100</tspan>
			<tspan x="150" y="10">150</tspan>
			<tspan x="200" y="10">200</tspan>
			<tspan x="250" y="10">250</tspan>
			<tspan x="300" y="10">300</tspan>
			<tspan x="350" y="10">350</tspan>
			<tspan x="400" y="10">400</tspan>
			<tspan x="450" y="10">450</tspan>
			<tspan x="500" y="10">500</tspan>
			<tspan x="550" y="10">550</tspan>
			<tspan x="600" y="10">600</tspan>
			<tspan x="650" y="10">650</tspan>
			<tspan x="700" y="10">700</tspan>
			<tspan x="740" y="10">750</tspan>
		</text>
		<text style="text-anchor:end;font-size:10px">
			<tspan x="750" y="53">50</tspan>
			<tspan x="750" y="103">100</tspan>
			<tspan x="750" y="153">150</tspan>
			<tspan x="750" y="203">200</tspan>
			<tspan x="750" y="253">250</tspan>
			<tspan x="750" y="303">300</tspan>
			<tspan x="750" y="353">350</tspan>
			<tspan x="750" y="403">400</tspan>
			<tspan x="750" y="453">450</tspan>
			<tspan x="750" y="500">500</tspan>
		</text>
		<!-- end draw grid -->
	</g>

	<!-- ============== MOUNTAINS ============== -->
	<g id="mountain_colors_1" class="mountain">
		<rect x="0" y="-80" width="55" height="20" class="snow"/> <!-- TODO: Try to do melting snow -->
		<rect x="0" y="-60" width="55" height="10" class="dirt"/>
		<rect x="0" y="-50" width="55" height="50" class="grass"/>
	</g>
	<g id="mountain_colors_2" class="mountain">
		<rect x="0" y="-80" width="55" height="20" class="snow"/> <!-- TODO: Try to do melting snow -->
		<rect x="0" y="-60" width="55" height="10" class="dirt"/>
		<rect x="0" y="-50" width="55" height="50" class="grass"/>
	</g>
	<g id="mountain_colors_3" class="mountain">
		<rect x="0" y="-80" width="55" height="20" class="snow"/> <!-- TODO: Try to do melting snow -->
		<rect x="0" y="-60" width="55" height="10" class="dirt"/>
		<rect x="0" y="-50" width="55" height="50" class="grass"/>
	</g>
	<clipPath id="mountain_clip">
		<path d="M0,0 l30,-80 l25,80" />
	</clipPath>
	<g id="mountain1">
		<use xlink:href="#mountain_colors_1" style="clip-path: url(#mountain_clip)"/>
	</g>
	<g id="mountain2">
		<use xlink:href="#mountain_colors_2" style="clip-path: url(#mountain_clip)"/>
	</g>
	<g id="mountain3">
		<use xlink:href="#mountain_colors_3" style="clip-path: url(#mountain_clip)"/>
	</g>
	<g id="mountains">
		<use transform="translate(0,0) scale(1.7)" xlink:href="#mountain3"/>
		<use transform="translate(81,0) scale(2.1)" xlink:href="#mountain1"/>
		<use transform="translate(57,0) scale(1.2)" xlink:href="#mountain2"/>
	</g>

	<!-- ============== SUN ============== -->
	<g id="sunLight">
		<rect transform="rotate(180)" x="0" y="0" width="2" height="19"> <!-- TODO style in CSS -->
			<animate attributeName="height" values="19;13;16;10;19" dur="6s" repeatCount="indefinite"/>
		</rect>
	</g>
	<g id="sun">
		<circle x="0" y="0" r="20" class="back"/>
		<circle x="0" y="0" r="16" class="in">
			<animate attributeName="r" values="16;11;14;9;16" dur="5s" repeatCount="indefinite"/>
		</circle>
		<use xlink:href="#sunLight" transform="rotate(+000) translate(0,-25)"/>
		<use xlink:href="#sunLight" transform="rotate(+022) translate(0,-25)"/>
		<use xlink:href="#sunLight" transform="rotate(+045) translate(0,-25)"/>
		<use xlink:href="#sunLight" transform="rotate(+068) translate(0,-25)"/>
		<use xlink:href="#sunLight" transform="rotate(+090) translate(0,-25)"/>
		<use xlink:href="#sunLight" transform="rotate(+112) translate(0,-25)"/>
		<use xlink:href="#sunLight" transform="rotate(+135) translate(0,-25)"/>
		<use xlink:href="#sunLight" transform="rotate(+158) translate(0,-25)"/>
		<use xlink:href="#sunLight" transform="rotate(+180) translate(0,-25)"/>

		<use xlink:href="#sunLight" transform="rotate(-022) translate(0,-25)"/>
		<use xlink:href="#sunLight" transform="rotate(-045) translate(0,-25)"/>
		<use xlink:href="#sunLight" transform="rotate(-068) translate(0,-25)"/>
		<use xlink:href="#sunLight" transform="rotate(-090) translate(0,-25)"/>
		<use xlink:href="#sunLight" transform="rotate(-112) translate(0,-25)"/>
		<use xlink:href="#sunLight" transform="rotate(-135) translate(0,-25)"/>
		<use xlink:href="#sunLight" transform="rotate(-158) translate(0,-25)"/>
		<use xlink:href="#sunLight" transform="rotate(-180) translate(0,-25)"/>
	</g>

	<!-- ============== ROAD ============== -->
	<g id="road">
		<rect x="0" y="0" width="120" height="80" class="back"/>
		<rect x="30" y="35" width="30" height="10" class="dash"/>
		<rect x="90" y="35" width="30" height="10" class="dash"/>
	</g>
	<g id="longRoad">
		<use x="0" y="0" xlink:href="#road"/>
		<use x="119" y="0" xlink:href="#road"/>
		<use x="237" y="0" xlink:href="#road"/>
		<use x="356" y="0" xlink:href="#road"/>
		<use x="474" y="0" xlink:href="#road"/>
		<use x="593" y="0" xlink:href="#road"/>
		<use x="712" y="0" xlink:href="#road"/>
	</g>

	<!-- ============== TREES ============== -->
	<g id="pine">
		<path d="M40,70 h-40 l30,-20 h-25 l25,-17 h-20 l20,-15 h-15 l25,-12
			l25,12 h-15 l20,15 h-20 l25,17 h-25 l30,20 h-40" class="leaves"/>
		<rect x="30" y="70" width="20" height="30" class="log-outline"/>
		<rect x="33" y="70" width="14" height="27" class="log-in"/>
	</g>
	<g id="pineForest">
		<use xlink:href="#pine" transform="scale(0.5) translate(60,00)"/>
		<use xlink:href="#pine" transform="scale(0.5) translate(10,30)"/>
		<use xlink:href="#pine" transform="scale(0.3) translate(10,180)"/>
		<use xlink:href="#pine" transform="scale(0.4) translate(90,130)"/>
		<use xlink:href="#pine" transform="scale(0.7) translate(10,30)"/>
		<use xlink:href="#pine" transform="scale(0.5) translate(90,70)"/>
	</g>
	<g id="longPineForest">
		<use xlink:href="#pineForest" transform="translate(000,00)"/>
		<use xlink:href="#pineForest" transform="translate(050,10)"/>
		<use xlink:href="#pineForest" transform="translate(100,20)"/>
		<use xlink:href="#pineForest" transform="translate(150,20)"/>
		<use xlink:href="#pineForest" transform="translate(200,00)"/>
		<use xlink:href="#pineForest" transform="translate(250,20)"/>
		<use xlink:href="#pineForest" transform="translate(300,20)"/>
		<use xlink:href="#pineForest" transform="translate(350,10)"/>
		<use xlink:href="#pineForest" transform="translate(400,00)"/>
		<use xlink:href="#pineForest" transform="translate(450,00)"/>
		<use xlink:href="#pineForest" transform="translate(500,10)"/>
		<use xlink:href="#pineForest" transform="translate(550,20)"/>
		<use xlink:href="#pineForest" transform="translate(600,20)"/>
		<use xlink:href="#pineForest" transform="translate(650,00)"/>
		<use xlink:href="#pineForest" transform="translate(700,20)"/>
		<use xlink:href="#pineForest" transform="translate(750,20)"/>
	</g>

	<!-- ============== HOUSE ============== -->
	<g id="window">
		<rect x="0" y="0" width="60" height="80" class="outline"/>
		<rect x="5" y="5" width="50" height="70" class="light"/> <!-- TODO: Animate color -->
		<rect x="28" y="0" width="4" height="80" class="outline"/>
		<rect x="0" y="38" width="60" height="4" class="outline"/>
	</g>
	<g id="mountainHouse"><!-- TODO: Add snow on the roof -->
		<rect x="10" y="30" width="120" height="60" class="wall"/>
		<rect x="60" y="50" width="20" height="40" class="door"/> <!-- Door -->
		<use xlink:href="#window" transform="translate(20,40) scale(0.4)"/>
		<use xlink:href="#window" transform="translate(95,40) scale(0.4)"/>
		<path d="M0,30 l70,-30 l70,30 z" class="roof"/> <!-- Roof -->
		<rect x="40" y="00" width="10" height="25" class="cheminey"/> <!-- Cheminey -->
	</g>

	<!-- ============== CLOUDS ============== -->
	<g id="cloud">
		<path d="M30,20
			c-5,-5 20,-10 25,-5
			c-5,-15 35,-15 30,0
			c20,-10 40,20 25,25
			c20,10 -10,25 -25,20
			c-5,10 -70,5 -65,-10
			q-14,-27, 10,-30 "/>
	</g>

	<g id="darkClouds">
		<use x="0" y="10" class="darkCloud" xlink:href="#cloud" transform="scale(1.2)"/>
		<use x="30" y="30" class="darkCloud" xlink:href="#cloud" transform="scale(1.1)"/>
		<use x="40" y="20" class="darkCloud" xlink:href="#cloud" transform="scale(1.4)"/>
		<use x="50" y="0" class="darkCloud" xlink:href="#cloud" transform="scale(0.9)"/>
		<use x="60" y="10" class="darkCloud" xlink:href="#cloud" transform="scale(1.7)"/>
		<use x="80" y="-10" class="darkCloud" xlink:href="#cloud" transform="scale(1.6)"/>
		<use x="70" y="20" class="darkCloud" xlink:href="#cloud" transform="scale(1.0)"/>
		<use x="80" y="10" class="darkCloud" xlink:href="#cloud" transform="scale(1.1)"/>
		<use x="120" y="30" class="darkCloud" xlink:href="#cloud" transform="scale(1.2)"/>
		<use x="150" y="10" class="darkCloud" xlink:href="#cloud" transform="scale(1.5)"/>
		<use x="160" y="10" class="darkCloud" xlink:href="#cloud" transform="scale(1.8)"/>
		<use x="230" y="30" class="darkCloud" xlink:href="#cloud" transform="scale(1.6)"/>
		<use x="250" y="0" class="darkCloud" xlink:href="#cloud" transform="scale(1.4)"/>
		<use x="270" y="20" class="darkCloud" xlink:href="#cloud" transform="scale(1.5)"/>
		<use x="280" y="10" class="darkCloud" xlink:href="#cloud" transform="scale(1.6)"/>
		<use x="320" y="30" class="darkCloud" xlink:href="#cloud" transform="scale(1.5)"/>
		<use x="90" y="-10" class="darkCloud" xlink:href="#cloud" transform="scale(1.4)"/>
		<use x="350" y="10" class="darkCloud" xlink:href="#cloud" transform="scale(1.5)"/>
	</g>

	<g class="lightCloud" id="animatedCloud1">
		<use xlink:href="#cloud" transform="scale(0.6) translate(0,20)">
			<animateMotion path="M0,0 h1000 m-800,0" begin="0s" dur="14s" repeatCount="indefinite" />
		</use>
	</g>
	<g class="lightCloud" id="animatedCloud2">
		<use xlink:href="#cloud" transform="scale(1.1) translate(0,30)">
			<animateMotion path="M0,0 h1000 m-800,0" begin="3s" dur="10s" repeatCount="indefinite" />
		</use>
	</g>
	<g class="lightCloud" id="animatedCloud3">
		<use xlink:href="#cloud" transform="scale(0.9) translate(0,10)">
			<animateMotion path="M0,0 h1000 m-800,0" begin="7s" dur="11s" repeatCount="indefinite" />
		</use>
	</g>
	<g class="lightCloud" id="animatedCloud4">
		<use xlink:href="#cloud" transform="scale(0.7) translate(0,80)">
			<animateMotion path="M0,0 h1000 m-800,0" begin="12s" dur="13s" repeatCount="indefinite" />
		</use>
	</g>

	<!-- ============== SIDE PLANE ============== -->
	<path id="Fuselage" d="
		m0,0
		l20,-5
		l60,50
		q275-20 275,-15
		q20,10 48,15
		q35,18 -24,40
		l-114,11
		q-22,7 -36,6
		q-40,-2 -55,-3
		l-86,-6
		q-80,-15 -80,-25
		q0,-10 20,-20 z"/>

	<path id="PilotWindow" d="
		m0,0
		q-10,5 -20,8
		l2,10
		q10,-5 27,-14z"/>

	<rect id="PassengerWindow" height="5" width="5"/>

	<g id="PassengerWindowGroup">
		<use x="0" y="0" xlink:href="#PassengerWindow"/>
		<use x="10" y="0" xlink:href="#PassengerWindow"/>
		<use x="20" y="0" xlink:href="#PassengerWindow"/>
		<use x="30" y="0" xlink:href="#PassengerWindow"/>
		<use x="40" y="0" xlink:href="#PassengerWindow"/>
		<use x="50" y="0" xlink:href="#PassengerWindow"/>
		<use x="60" y="0" xlink:href="#PassengerWindow"/>
		<use x="70" y="0" xlink:href="#PassengerWindow"/>
	</g>

	<path id="Door" d="
		m0,0
		l-1.5,15
		l1.5,15
		l15,-2
		l-1.5,-15
		l1.5,-15z"/>

	<g id="PlaneBody">
		<use x="0" y="0" xlink:href="#Fuselage"/>
		<use x="383" y="40" xlink:href="#PilotWindow"/>
		<use x="240" y="80" xlink:href="#PassengerWindowGroup" transform="rotate(-4)"/>
		<use x="335" y="45" xlink:href="#Door"/>
		<use x="120" y="75" xlink:href="#PassengerWindowGroup" transform="rotate(-3)"/>
		<use x="215" y="53" xlink:href="#Door"/>
		<use x="115" y="70" xlink:href="#Door" transform="scale(0.85)"/>
	</g>

	<path id="RightWing" d="
		m0,0
		q-8,10 -15,20
		l-80,60
		q15,10 120,-60
		q17,-13 35,-25
		q-10,-5 -60,5 "/>

	<g id="2Motor">
		<path d="
			m0,0
			q40,-20 60-12
			q7,12 0,24
			q-20,7 -60,-4"/>
		<ellipse id="Motor6" cx="56" cy="0" rx="5" ry="10"/>
		<ellipse id="Motor5" cx="56" cy="0" rx="5" ry="10"/>
	</g>

	<g id="RightWingMotor">
		<use x="-5" y="30" xlink:href="#2Motor"/>
		<use x="0" y="0" xlink:href="#RightWing"/>
	</g>

	<path id="LeftWing" d="
		m0,0
		q3,-35  1,-60
		l15,5
		q12,40 20,60"/>

	<path id="RightBackWing" d="
		m0,0
		q-15,10 -30,20
		l15,-2
		q30,-13 45,-20
		q-10,-5 -30,2"/>

	<path id="LeftBackWing" d="
		m0,0
		l2,-5
		l10,2
		l2,15"/>

	<g id="Plane">
		<use x="220" y="40" xlink:href="#LeftWing"/>
		<use x="50" y="20" xlink:href="#LeftBackWing"/>
		<use x="0" y="0" xlink:href="#PlaneBody"/>
		<use x="210" y="95" xlink:href="#RightWingMotor"/>
		<use x="30" y="70" xlink:href="#RightBackWing"/>
	</g>

	<!-- ============== AIRPORT ============== -->
	<g id="controlTower">
		<rect x="20" y="45" width="30" height="70" class="base"/>
		<path d="M0,15 h70 l-20,30 h-30 l-20,-30" class="base"/>
		<path d="M5,20 h55 l-10,15 h-30 l-10,-15" class="window"/>
		<rect x="32.5" y="0" width="5" height="15" class="radar"/>
		<rect x="10" y="0" width="50" height="10" class="radar">
			<animate attributeType="xml" attributeName="width" values="50;5;50" begin="0s" dur="5s" repeatCount="indefinite"/>
			<animate attributeType="xml" attributeName="x" values="10;32.5;10" begin="0s" dur="5s" repeatCount="indefinite"/>
		</rect>
	</g>
	<g id="airport">
		<path d="M10,60 h500 l10,300 h-510 l10,-300" class="building"/>
		<use x="70" y="0" xlink:href="#controlTower" transform="scale(1.2)"/>
	</g>

	<linearGradient id="skyColor" x1="0" y1="0" x2="0" y2="100%">
    <stop offset="0" class="begin" />
    <stop offset="100%" class="end" />
  </linearGradient>

	<g id="grass">
		<rect width="10000" height="320"/>
	</g>
</defs>
<!--
	========================================================================================================================
	======================================================== SCENES ========================================================
	========================================================================================================================
 -->
<g id="display">
	<rect x="0" y="0" width="750" height="500" style="fill: url(#skyColor)"/>
	<use x="15" y="15" xlink:href="#sun">
		<animate attributeType="css" attributeName="opacity" values="1;0;0;0;0;0;0;0;0;0;0;1" begin="scene2.begin" dur="10s" />
	</use>
	<use xlink:href="#animatedCloud1" transform="translate(-200)"/>
	<use xlink:href="#animatedCloud4" transform="translate(-200)"/>

	<!-- ======================================================== SCENE 1 ======================================================== -->
	<g>
		<!-- ============== BACKGROUND ============== -->
		<use y="180" xlink:href="#grass"/>
		<use x="-20" y="200" xlink:href="#mountains" transform="scale(1.1)"/>
		<use x="320" y="200" xlink:href="#mountains"/>
		<use x="150" y="200" xlink:href="#mountains" transform="scale(0.9)"/>
		<use x="670" y="200" xlink:href="#mountains"/>
		<use x="490" y="200" xlink:href="#mountains" transform="scale(0.9)"/>
		<use x="-30" y="130" xlink:href="#longPineForest"/>
		<use x="400" y="150" xlink:href="#mountainHouse"/>
		<use x="0" y="300" xlink:href="#longRoad"/>

		<!-- ============== PLANE ============== -->
		<!-- <path d="M100,350 h550 c350,00 400,-50 900,-400 q125,-80 300,-50 h500" fill="none" stroke="black" stroke-width="2"/> -->
		<use x="100" y="250" xlink:href="#Plane">
			<animateMotion path="M0,0 h550 c350,00 400,-50 900,-400 q125,-80 300,-50 h500" begin="scene1.begin" dur="14s" fill="freeze"/>
			<animateTransform attributeName="transform" type="rotate" values="0;-5;-10;0" begin="scene1.begin" dur="14s" fill="freeze"/>
		</use>

		<!-- ============== FOREGROUND ============== -->
		<use xlink:href="#airport" transform="translate(130,350)"/>

		<animateMotion id="scene1" path="M0,0 h-550 c-350,0 -400,50 -900,400 q-125,80 -300,50 h-500" begin="indefinite" dur="15s" fill="freeze"/> <!-- TODO: Use Cubic / Qudratic bezier curves instead of lines  -->
	</g>

	<use xlink:href="#animatedCloud2" transform="translate(-200)"/>
	<use xlink:href="#animatedCloud3" transform="translate(-200)"/>
	<g transform="translate(0,-200)">
		<use x="-200" y="10" xlink:href="#darkClouds"/>
		<use x="0" y="-10" xlink:href="#darkClouds"/>
		<use x="500" y="20" xlink:href="#darkClouds"/>
		<animateTransform attributeName="transform" type="translate" values="0,-200;0,-50;0,-50;0,-50;0,-50;0,-50;0,-50;0,-50;0,-50;0,-200" begin="scene2.begin" dur="10s" />
		<animate id="scene2" attributeType="css" attributeName="opacity" values="0;1;1;1;1;1;0" begin="scene1.end" dur="10s" />
	</g>

	<rect width="100%" height="100%" id="storm">
		<animate attributeType="css" attributeName="opacity" values="0;0;0;0;0;0;0;0;0;0;0;0;0;0;0;0;0;0.9;0;0;0;0;0;0.9;0;0.9;0;0;0;0;0" begin="scene2.begin" dur="5.4s"/>
	</rect>
	<use id="gridDisplay" xlink:href="#grid"/>
</g>
</svg>
