<?xml version="1.0" standalone="no"?>
<?xml-stylesheet type="text/css" href="handson.css" ?>
<svg xmlns="http://www.w3.org/2000/svg" width="750" height="500" viewBox="0 0 750 500" xmlns:xlink="http://www.w3.org/1999/xlink" >
<rect class="background" x="0" y="0" width="750" height="500"  />

<!-- Ivan ROGER
This is an SVG Animation of a plane
09/02/2016 -->

<!-- draw background grid -->
<defs>
	<g id="grid">
		<path class="thin" style="stroke-opacity:0.2" d="M0,0
		h750v10h-750v10h750v10h-750v10
		h750v10h-750v10h750v10h-750v10
		h750v10h-750v10h750v10h-750v10
		h750v10h-750v10h750v10h-750v10
		h750v10h-750v10h750v10h-750v10
		h750v10h-750v10h750v10h-750v10
		h750v10h-750v10h750v10h-750v10
		h750v10h-750v10h750v10h-750v10
		h750v10h-750v10h750v10h-750v10
		h750v10h-750v10h750v10h-750v10
		h750v10h-750v10h750v10h-750v10
		h750v10h-750v10h750v10h-750v10
		h750v10h-750v10
		h750v-500h-750v500
		h10v-500h10v500h10v-500h10v500
		h10v-500h10v500h10v-500h10v500
		h10v-500h10v500h10v-500h10v500
		h10v-500h10v500h10v-500h10v500
		h10v-500h10v500h10v-500h10v500
		h10v-500h10v500h10v-500h10v500
		h10v-500h10v500h10v-500h10v500
		h10v-500h10v500h10v-500h10v500
		h10v-500h10v500h10v-500h10v500
		h10v-500h10v500h10v-500h10v500
		h10v-500h10v500h10v-500h10v500
		h10v-500h10v500h10v-500h10v500
		h10v-500h10v500h10v-500h10v500
		h10v-500h10v500h10v-500h10v500
		h10v-500h10v500h10v-500h10v500
		h10v-500h10v500h10v-500h10v500
		h10v-500h10v500h10v-500h10v500
		h10v-500h10v500h10v-500h10v500
		h10v-500h10v500" />
		<path class="outline" style="stroke-opacity:0.2" d="M0,0
		h750v50h-750v50h750v50h-750v50
		h750v50h-750v50h750v50h-750v50
		h750v50h-750v50
		h750v-500h-750v500
		h50v-500h50v500h50v-500h50v500
		h50v-500h50v500h50v-500h50v500
		h50v-500h50v500h50v-500h50v500
		h50v-500h50v500h50
		"/>
		<text x="0" style="text-anchor:middle;font-size:10px">
			<tspan x="50" y="10">50</tspan>
			<tspan x="100" y="10">100</tspan>
			<tspan x="150" y="10">150</tspan>
			<tspan x="200" y="10">200</tspan>
			<tspan x="250" y="10">250</tspan>
			<tspan x="300" y="10">300</tspan>
			<tspan x="350" y="10">350</tspan>
			<tspan x="400" y="10">400</tspan>
			<tspan x="450" y="10">450</tspan>
			<tspan x="500" y="10">500</tspan>
			<tspan x="550" y="10">550</tspan>
			<tspan x="600" y="10">600</tspan>
			<tspan x="650" y="10">650</tspan>
			<tspan x="700" y="10">700</tspan>
		</text>
		<text style="text-anchor:start;font-size:10px">
			<tspan x="730" y="53">50</tspan>
			<tspan x="730" y="103">100</tspan>
			<tspan x="730" y="153">150</tspan>
			<tspan x="730" y="203">200</tspan>
			<tspan x="730" y="253">250</tspan>
			<tspan x="730" y="303">300</tspan>
			<tspan x="730" y="353">350</tspan>
			<tspan x="730" y="403">400</tspan>
			<tspan x="730" y="453">450</tspan>
		</text>
		<!-- end draw grid -->
	</g>

	<!-- ============== MOUNTAINS ============== -->
	<g id="mountain_Colors_1">
			<rect x="0" y="-60" width="55" height="10" style="fill: #4A2D19"/>
			<rect x="0" y="-50" width="55" height="50" style="fill: #1C4A11"/>
			<rect x="0" y="-80" width="55" height="20" style="fill: #FFF"/> <!-- Try to do melting snow -->
	</g>
	<g id="mountain_Colors_2">
			<rect x="0" y="-60" width="55" height="10" style="fill: #4A2D19"/>
			<rect x="0" y="-50" width="55" height="50" style="fill: #18400E"/>
			<rect x="0" y="-80" width="55" height="20" style="fill: #FFF"/> <!-- Try to do melting snow -->
	</g>
	<g id="mountain_Colors_3">
			<rect x="0" y="-60" width="55" height="10" style="fill: #4A2D19"/>
			<rect x="0" y="-50" width="55" height="50" style="fill: #284F1B"/>
			<rect x="0" y="-80" width="55" height="20" style="fill: #FFF"/> <!-- Try to do melting snow -->
	</g>
	<clipPath id="mountain_Clip">
		<path d="M0,0 l30,-80 l25,80" />
	</clipPath>
	<g id="mountain1">
		<use xlink:href="#mountain_Colors_1" style="clip-path: url(#mountain_Clip)"/>
	</g>
	<g id="mountain2">
		<use xlink:href="#mountain_Colors_2" style="clip-path: url(#mountain_Clip)"/>
	</g>
	<g id="mountain3">
		<use xlink:href="#mountain_Colors_3" style="clip-path: url(#mountain_Clip)"/>
	</g>
	<g id="mountains">
		<use transform="translate(0,0) scale(1.7)" xlink:href="#mountain3"/>
		<use transform="translate(81,0) scale(2.1)" xlink:href="#mountain1"/>
		<use transform="translate(57,0) scale(1.2)" xlink:href="#mountain2"/>
	</g>

	<!-- ============== SUN ============== -->
	<g id="sunLight">
		<rect transform="rotate(180)" x="0" y="0" width="2" height="19" style="fill: #E8A426">
			<animate attributeName="height" values="19;13;16;10;19" dur="6s" repeatCount="indefinite"/>
		</rect>
	</g>
	<g id="sun">
		<circle x="0" y="0" r="20" style="fill: #E8B826"/>
		<circle x="0" y="0" r="16" style="fill: #E8A426">
			<animate attributeName="r" values="16;11;14;9;16" dur="5s" repeatCount="indefinite"/>
		</circle>
		<use xlink:href="#sunLight" transform="rotate(+000) translate(0,-25)"/>
		<use xlink:href="#sunLight" transform="rotate(+022) translate(0,-25)"/>
		<use xlink:href="#sunLight" transform="rotate(+045) translate(0,-25)"/>
		<use xlink:href="#sunLight" transform="rotate(+068) translate(0,-25)"/>
		<use xlink:href="#sunLight" transform="rotate(+090) translate(0,-25)"/>
		<use xlink:href="#sunLight" transform="rotate(+112) translate(0,-25)"/>
		<use xlink:href="#sunLight" transform="rotate(+135) translate(0,-25)"/>
		<use xlink:href="#sunLight" transform="rotate(+158) translate(0,-25)"/>
		<use xlink:href="#sunLight" transform="rotate(+180) translate(0,-25)"/>

		<use xlink:href="#sunLight" transform="rotate(-022) translate(0,-25)"/>
		<use xlink:href="#sunLight" transform="rotate(-045) translate(0,-25)"/>
		<use xlink:href="#sunLight" transform="rotate(-068) translate(0,-25)"/>
		<use xlink:href="#sunLight" transform="rotate(-090) translate(0,-25)"/>
		<use xlink:href="#sunLight" transform="rotate(-112) translate(0,-25)"/>
		<use xlink:href="#sunLight" transform="rotate(-135) translate(0,-25)"/>
		<use xlink:href="#sunLight" transform="rotate(-158) translate(0,-25)"/>
		<use xlink:href="#sunLight" transform="rotate(-180) translate(0,-25)"/>
	</g>

	<!-- ============== ROAD ============== -->
	<g id="road">
		<rect x="0" y="0" width="120" height="80" style="fill: #01142B"/>
		<rect x="30" y="35" width="30" height="10" style="fill: #EFF"/>
		<rect x="90" y="35" width="30" height="10" style="fill: #EFF"/>
	</g>
	<g id="longRoad">
		<use xlink:href="#road"/>
		<use xlink:href="#road" transform="translate(120,0)"/>
		<use xlink:href="#road" transform="translate(240,0)"/>
	</g>
</defs>

<g transform="translate(100,100)">
	<use xlink:href="#sun" transform="translate(15,15)"/>
	<use xlink:href="#mountains" transform="translate(0,200)"/>
	<use xlink:href="#longRoad" transform="translate(0,300)"/>

	<use xlink:href="#grid"/>
</g>

</svg>
